<svg width="40" height="39" viewBox="0 0 40 39" fill="none" xmlns="http://www.w3.org/2000/svg">
<path d="M20.4172 38.9614C31.1761 38.9614 39.8979 30.2396 39.8979 19.4807C39.8979 8.72181 31.1761 0 20.4172 0C9.65833 0 0.936523 8.72181 0.936523 19.4807C0.936523 30.2396 9.65833 38.9614 20.4172 38.9614Z" fill="white"/>
<path d="M24.556 8.65808H16.2876C12.5992 8.65808 9.60352 11.6538 9.60352 15.3421V23.6106C9.60352 27.299 12.5992 30.2947 16.2876 30.2947H24.556C28.2444 30.2947 31.2401 27.299 31.2401 23.6106V15.3421C31.2401 11.6538 28.2444 8.65808 24.556 8.65808ZM28.8245 23.6193C28.8245 25.9743 26.911 27.8964 24.5474 27.8964H16.2789C13.9239 27.8964 12.0018 25.9829 12.0018 23.6193V15.3508C12.0018 12.9958 13.9152 11.0737 16.2789 11.0737H24.5474C26.9024 11.0737 28.8245 12.9871 28.8245 15.3508V23.6193Z" fill="#CD202C"/>
<path d="M20.4173 13.9481C17.3696 13.9481 14.8848 16.433 14.8848 19.4806C14.8848 22.5283 17.3696 25.0132 20.4173 25.0132C23.4649 25.0132 25.9498 22.5283 25.9498 19.4806C25.9498 16.433 23.4649 13.9481 20.4173 13.9481ZM20.4173 22.84C18.5645 22.84 17.0579 21.3335 17.0579 19.4806C17.0579 17.6278 18.5645 16.1213 20.4173 16.1213C22.2701 16.1213 23.7766 17.6278 23.7766 19.4806C23.7766 21.3335 22.2701 22.84 20.4173 22.84Z" fill="#CD202C"/>
<path d="M26.3716 14.5547C26.8813 14.4721 27.2275 13.9919 27.1449 13.4822C27.0622 12.9725 26.582 12.6263 26.0723 12.7089C25.5626 12.7915 25.2164 13.2717 25.299 13.7814C25.3817 14.2912 25.8618 14.6374 26.3716 14.5547Z" fill="#CD202C"/>
</svg>
