<svg width="40" height="39" viewBox="0 0 40 39" fill="none" xmlns="http://www.w3.org/2000/svg">
<path d="M20.386 38.9614C31.1449 38.9614 39.8667 30.2396 39.8667 19.4807C39.8667 8.72181 31.1449 0 20.386 0C9.62708 0 0.905273 8.72181 0.905273 19.4807C0.905273 30.2396 9.62708 38.9614 20.386 38.9614Z" fill="white"/>
<path d="M31.6141 27.1048C31.0474 27.1845 28.2758 27.1048 28.1319 27.1048C27.4155 27.114 26.7243 26.8403 26.2082 26.3433C25.6238 25.781 25.1014 25.1612 24.5302 24.5723C24.3613 24.3936 24.1785 24.2285 23.9834 24.0787C23.5274 23.7267 23.0758 23.8064 22.8611 24.3443C22.6933 24.9256 22.5763 25.5204 22.5113 26.1219C22.4737 26.6665 22.1283 27.0074 21.5174 27.045C21.1388 27.065 20.7603 27.0716 20.3861 27.0627C19.0227 27.054 17.6807 26.7225 16.4701 26.0953C15.1602 25.3654 14.0189 24.3674 13.1207 23.1666C11.6442 21.2805 10.4643 19.2085 9.41054 17.0722C9.3552 16.966 8.2749 14.6681 8.24834 14.5597C8.15093 14.1966 8.24834 13.8491 8.54719 13.7295C8.73757 13.6565 12.2972 13.7295 12.357 13.7295C12.6216 13.7272 12.8801 13.8092 13.095 13.9637C13.31 14.1181 13.4702 14.3369 13.5524 14.5884C14.2104 16.2733 15.1114 17.8529 16.2266 19.2771C16.3827 19.4675 16.5653 19.6345 16.7689 19.773C17.0589 19.97 17.3334 19.9014 17.453 19.5671C17.5946 19.1033 17.6779 18.6237 17.7009 18.1392C17.7208 17.1785 17.7009 16.5454 17.6478 15.5868C17.6124 14.9714 17.3954 14.4313 16.4878 14.2586C16.2089 14.2099 16.1845 13.9797 16.3638 13.7494C16.7379 13.2713 17.2493 13.196 17.8227 13.1672C18.6772 13.1185 19.5317 13.1517 20.3861 13.1672H20.5721C20.944 13.1659 21.315 13.2037 21.679 13.2801C21.8941 13.3237 22.0895 13.4355 22.2359 13.5991C22.3823 13.7626 22.4719 13.9691 22.4914 14.1878C22.5351 14.4302 22.5537 14.6765 22.5467 14.9227C22.5246 15.972 22.4737 17.0191 22.4626 18.0684C22.4524 18.4839 22.4903 18.8991 22.5755 19.3059C22.6973 19.8637 23.0802 20.0032 23.461 19.6003C23.954 19.0795 24.4062 18.5214 24.8136 17.9312C25.5339 16.8554 26.1281 15.7004 26.5846 14.4888C26.8325 13.8668 27.0273 13.7295 27.6914 13.7295H31.468C31.6926 13.7256 31.9165 13.7554 32.1321 13.8181C32.2085 13.8381 32.2798 13.8737 32.3418 13.9227C32.4037 13.9716 32.4549 14.0328 32.4921 14.1024C32.5293 14.172 32.5517 14.2486 32.558 14.3272C32.5642 14.4059 32.5541 14.4851 32.5284 14.5597C32.3424 15.3876 31.8953 16.0938 31.4215 16.7734C30.6534 17.8625 29.8431 18.9229 29.0573 19.9943C28.9579 20.1364 28.867 20.2843 28.785 20.4371C28.4884 20.9706 28.5105 21.2694 28.94 21.7144C29.6262 22.4184 30.3589 23.0803 31.0208 23.8064C31.5068 24.3342 31.9454 24.9039 32.3314 25.5087C32.8162 26.2592 32.5173 26.9764 31.6141 27.1048Z" fill="#CD202C"/>
</svg>
