<svg width="40" height="39" viewBox="0 0 40 39" fill="none" xmlns="http://www.w3.org/2000/svg">
<path d="M20.4495 38.9614C31.2084 38.9614 39.9302 30.2396 39.9302 19.4807C39.9302 8.72181 31.2084 0 20.4495 0C9.69056 0 0.96875 8.72181 0.96875 19.4807C0.96875 30.2396 9.69056 38.9614 20.4495 38.9614Z" fill="white"/>
<path d="M29.0386 10.8914C27.0118 8.8444 24.3202 7.58902 21.4494 7.35174C18.5785 7.11446 15.7173 7.91089 13.3819 9.59738C11.0465 11.2839 9.39068 13.7494 8.71304 16.5492C8.03539 19.349 8.38057 22.2989 9.68631 24.8666L8.40457 31.0894C8.39127 31.1513 8.39089 31.2153 8.40346 31.2774C8.41603 31.3395 8.44128 31.3983 8.47762 31.4502C8.53086 31.529 8.60686 31.5896 8.69546 31.624C8.78406 31.6584 8.88106 31.665 8.97349 31.6428L15.0723 30.1973C17.6328 31.4699 20.5618 31.7929 23.3381 31.1087C26.1144 30.4245 28.558 28.7776 30.2339 26.4609C31.9099 24.1442 32.7096 21.308 32.4907 18.457C32.2718 15.606 31.0486 12.9252 29.0386 10.8914ZM27.137 26.0687C25.7347 27.4671 23.9289 28.3902 21.9741 28.7079C20.0194 29.0256 18.0142 28.7219 16.2411 27.8396L15.3911 27.419L11.6521 28.3045L11.6632 28.258L12.438 24.4947L12.0218 23.6734C11.1158 21.8942 10.7963 19.8739 11.1088 17.9019C11.4214 15.9299 12.35 14.1075 13.7618 12.6956C15.5356 10.9223 17.9412 9.9261 20.4494 9.9261C22.9576 9.9261 25.3632 10.9223 27.137 12.6956C27.1521 12.7129 27.1684 12.7292 27.1857 12.7443C28.9376 14.5222 29.9156 16.9206 29.9065 19.4165C29.8974 21.9125 28.9019 24.3036 27.137 26.0687Z" fill="#CD202C"/>
<path d="M26.8046 23.3082C26.3464 24.0299 25.6225 24.9131 24.7127 25.1323C23.1188 25.5175 20.6726 25.1456 17.6288 22.3076L17.5911 22.2744C14.9148 19.7928 14.2197 17.7274 14.3879 16.0893C14.4809 15.1595 15.2557 14.3183 15.9087 13.7693C16.012 13.6812 16.1344 13.6184 16.2662 13.5861C16.3981 13.5537 16.5356 13.5527 16.6679 13.583C16.8002 13.6134 16.9236 13.6742 17.0282 13.7608C17.1327 13.8473 17.2156 13.9571 17.2702 14.0814L18.2553 16.2951C18.3193 16.4387 18.343 16.5969 18.3239 16.7529C18.3048 16.9089 18.2436 17.0568 18.1468 17.1806L17.6487 17.827C17.5418 17.9605 17.4773 18.1229 17.4635 18.2933C17.4497 18.4638 17.4872 18.6344 17.5712 18.7834C17.8502 19.2726 18.5187 19.992 19.2603 20.6584C20.0926 21.411 21.0158 22.0995 21.6002 22.3342C21.7566 22.398 21.9285 22.4136 22.0938 22.3789C22.2591 22.3442 22.4103 22.2607 22.5277 22.1393L23.1055 21.5571C23.217 21.4472 23.3556 21.3688 23.5073 21.3299C23.659 21.291 23.8182 21.293 23.9689 21.3358L26.3088 21.9999C26.4378 22.0395 26.5562 22.1081 26.6547 22.2004C26.7532 22.2927 26.8292 22.4064 26.8771 22.5326C26.9249 22.6588 26.9433 22.7944 26.9307 22.9288C26.9182 23.0632 26.875 23.193 26.8046 23.3082Z" fill="#CD202C"/>
</svg>
