<svg width="39" height="39" viewBox="0 0 39 39" fill="none" xmlns="http://www.w3.org/2000/svg">
<path d="M19.4807 38.9614C30.2396 38.9614 38.9614 30.2396 38.9614 19.4807C38.9614 8.72181 30.2396 0 19.4807 0C8.72181 0 0 8.72181 0 19.4807C0 30.2396 8.72181 38.9614 19.4807 38.9614Z" fill="white"/>
<path d="M8.9139 19.0586L27.6966 11.8167C28.5683 11.5017 29.3297 12.0293 29.0472 13.3475L29.0488 13.3459L25.8508 28.4126C25.6137 29.4808 24.979 29.7405 24.091 29.2373L19.2208 25.648L16.8718 27.911C16.612 28.1707 16.3929 28.3899 15.8896 28.3899L16.2354 23.4337L25.2615 15.2794C25.6543 14.9336 25.1738 14.7388 24.6559 15.0829L13.5016 22.1057L8.69312 20.6057C7.64928 20.2745 7.62655 19.5619 8.9139 19.0586Z" fill="#CD202C"/>
</svg>
