<svg width="46" height="46" viewBox="0 0 46 46" fill="none" xmlns="http://www.w3.org/2000/svg">
<g clip-path="url(#clip0_1335_292)">
<path d="M6.88399 43.828L19.8161 31.4315C21.064 32.2257 22.4082 32.8655 23.8192 33.301C25.4059 33.7904 27.0594 34.0383 28.7335 34.0383C37.9179 34.0383 45.3906 26.5656 45.3906 17.3808C45.3906 8.19631 37.918 0.723632 28.7335 0.723632C19.5487 0.723632 12.076 8.19631 12.076 17.3808C12.076 18.4736 12.1823 19.5658 12.3939 20.6285C12.5554 21.4491 13.3523 21.9823 14.1729 21.8194C14.9938 21.6569 15.5349 20.8575 15.3634 20.0397C15.192 19.1711 15.1046 18.2765 15.1046 17.3808C15.1046 9.86627 21.2179 3.75221 28.7335 3.75221C36.2487 3.75221 42.3621 9.86627 42.3621 17.3808C42.3621 24.8956 36.2487 31.0097 28.7335 31.0097C27.3625 31.0097 26.0094 30.807 24.7125 30.4069C21.9929 29.5685 19.5469 27.8457 17.8286 25.5571C17.8125 25.5358 17.7882 25.5262 17.771 25.506C17.7525 25.4837 17.7467 25.4553 17.7268 25.4337C17.6719 25.375 17.6002 25.3472 17.5389 25.2996C17.4614 25.2385 17.3897 25.1751 17.3036 25.1312C17.2138 25.0853 17.1209 25.0616 17.0248 25.0349C16.9333 25.0088 16.8458 24.98 16.7509 24.9714C16.6538 24.9632 16.5609 24.9762 16.4635 24.9862C16.3665 24.9961 16.2732 25.0026 16.1785 25.0314C16.0842 25.0602 16.0009 25.111 15.9124 25.1586C15.8452 25.1947 15.7708 25.2091 15.7077 25.2564C15.6844 25.2735 15.6745 25.2999 15.6525 25.3184C15.6323 25.3356 15.6062 25.3407 15.5867 25.3589L1.55244 38.4508C0.814844 39.1888 0.444845 40.1589 0.444845 41.1283C0.444845 42.098 0.814501 43.0671 1.55107 43.8043C2.26535 44.52 3.21624 44.914 4.22919 44.914C5.24111 44.914 6.19063 44.52 6.88399 43.828ZM3.69425 41.6635C3.39832 41.368 3.39832 40.8879 3.65585 40.6293L16.4896 28.658C16.7783 28.9704 17.078 29.2718 17.3897 29.5609L4.76481 41.6635C4.57107 41.857 4.34612 41.8854 4.22953 41.8854C4.1126 41.8854 3.88799 41.8566 3.69425 41.6635Z" fill="#010203"/>
<path d="M21.1618 17.3805C21.1618 16.5441 21.8391 15.8662 22.6761 15.8662L34.7904 15.8662C35.6274 15.8662 36.3047 16.5441 36.3047 17.3805C36.3047 18.2169 35.6274 18.8948 34.7904 18.8948L22.6761 18.8948C21.8391 18.8948 21.1618 18.2169 21.1618 17.3805Z" fill="black"/>
<path d="M27.2195 23.4372L27.2195 11.3229C27.2195 10.4865 27.8967 9.80859 28.7338 9.80859C29.5708 9.80859 30.248 10.4865 30.248 11.3229L30.248 23.4372C30.248 24.2735 29.5708 24.9515 28.7338 24.9515C27.8967 24.9515 27.2195 24.2735 27.2195 23.4372Z" fill="#010203"/>
</g>
<defs>
<clipPath id="clip0_1335_292">
<rect width="44.9458" height="44.9458" fill="white" transform="translate(45.3906 0.37207) rotate(90)"/>
</clipPath>
</defs>
</svg>
