<svg width="20" height="20" viewBox="0 0 20 20" fill="none" xmlns="http://www.w3.org/2000/svg">
<g clip-path="url(#clip0_128_288)">
<path d="M18.1836 8.66418C18.1357 8.24661 17.9457 7.88132 17.6724 7.63838C17.6117 3.41614 14.1939 0 10.0004 0C5.80691 0 2.3889 3.41614 2.32832 7.63838C2.05515 7.88121 1.86517 8.24615 1.81721 8.66344C1.04725 8.85006 0.473633 9.5449 0.473633 10.3715V12.1822C0.473633 13.0088 1.04725 13.7036 1.81721 13.8903C1.90376 14.6443 2.45487 15.2276 3.12004 15.2276H3.79248C4.51761 15.2276 5.10742 14.5347 5.10742 13.6828V8.87086C5.10742 8.39476 4.92307 7.96838 4.63393 7.68481C4.66979 4.72147 7.0632 2.32181 10.0004 2.32181C12.9376 2.32181 15.3309 4.72142 15.3669 7.6847C15.0776 7.96827 14.8931 8.3947 14.8931 8.87086V13.6828C14.8931 14.499 15.4349 15.169 16.1182 15.2236V16.5774C16.1182 17.5016 15.3664 18.2535 14.4422 18.2535H13.063C12.8853 17.7341 12.3926 17.3594 11.8138 17.3594H10.8944C10.1664 17.3594 9.57419 17.9517 9.57419 18.6797C9.57419 19.4077 10.1664 20 10.8944 20H11.8138C12.3926 20 12.8853 19.6254 13.063 19.1059H14.4422C15.8363 19.1059 16.9707 17.9716 16.9707 16.5774V15.2236C17.5951 15.1737 18.1012 14.6096 18.1836 13.8895C18.9534 13.7029 19.5272 13.0086 19.5272 12.1822V10.3715C19.5271 9.54501 18.9534 8.8508 18.1836 8.66418ZM1.80499 12.9787C1.52051 12.8262 1.32605 12.5271 1.32605 12.1822V10.3715C1.32605 10.0267 1.52051 9.72743 1.80499 9.5749V12.9787ZM11.8138 19.1476H10.8944C10.6365 19.1476 10.4266 18.9377 10.4266 18.6797C10.4266 18.4217 10.6365 18.2118 10.8944 18.2118H11.8138C12.0717 18.2118 12.2816 18.4217 12.2816 18.6797C12.2816 18.9377 12.0717 19.1476 11.8138 19.1476ZM4.255 13.6828C4.255 14.0516 4.03889 14.3752 3.79248 14.3752H3.11999C2.87358 14.3752 2.65735 14.0517 2.65735 13.6828V8.87086C2.65735 8.50205 2.87358 8.17847 3.11999 8.17847H3.79248C4.03889 8.17847 4.255 8.50199 4.255 8.87086V13.6828ZM10.0004 1.46939C6.71269 1.46939 4.01326 4.05983 3.79561 7.32623C3.79447 7.32623 3.79351 7.32611 3.79248 7.32611H3.19284C3.41123 3.71926 6.3807 0.852416 10.0004 0.852416C13.6199 0.852416 16.5894 3.71932 16.8078 7.32611H16.2083C16.2073 7.32611 16.2065 7.32623 16.2056 7.32623C15.9879 4.05983 13.2882 1.46939 10.0004 1.46939ZM17.3433 13.6828C17.3433 14.0516 17.1272 14.3752 16.8806 14.3752H16.2083C15.9617 14.3752 15.7455 14.0517 15.7455 13.6828V8.87086C15.7455 8.50205 15.9617 8.17847 16.2083 8.17847H16.8806C17.1272 8.17847 17.3433 8.50199 17.3433 8.87086V13.6828ZM18.6747 12.1822C18.6747 12.5271 18.4802 12.8264 18.1956 12.9788V9.57513C18.4802 9.72765 18.6747 10.0266 18.6747 10.3715V12.1822Z" fill="white"/>
</g>
<defs>
<clipPath id="clip0_128_288">
<rect width="20" height="20" fill="white"/>
</clipPath>
</defs>
</svg>
